<svg width="17" height="20" viewBox="0 0 17 20" fill="none" xmlns="http://www.w3.org/2000/svg">
<g id="Subtract" filter="url(#filter0_i_134_71)">
<path fill-rule="evenodd" clip-rule="evenodd" d="M10.8341 5.55763H10.4841C10.42 5.55763 10.3586 5.53218 10.3135 5.48692C10.2682 5.44167 10.2427 5.38026 10.2427 5.31624C10.2427 5.25221 10.2682 5.19081 10.3135 5.14555C10.3586 5.1003 10.42 5.07484 10.4841 5.07484H10.8341C10.7776 4.52116 10.5319 4.00386 10.1383 3.61031C9.74475 3.21675 9.22742 2.97099 8.67371 2.91454V3.26451C8.67371 3.32854 8.64832 3.38994 8.60303 3.4352C8.55774 3.48045 8.49634 3.50591 8.43237 3.50591C8.36841 3.50591 8.30701 3.48045 8.26172 3.4352C8.24097 3.41441 8.22437 3.39024 8.21252 3.36397C8.19849 3.33302 8.19104 3.29915 8.19104 3.26451V2.91454C7.63733 2.97099 7.12 3.21675 6.72644 3.61031C6.33289 4.00386 6.08716 4.52116 6.03064 5.07484H6.38062C6.4447 5.07484 6.5061 5.1003 6.55127 5.14555C6.59656 5.19081 6.62207 5.25221 6.62207 5.31624C6.62207 5.38026 6.59656 5.44167 6.55127 5.48692C6.52942 5.50883 6.50378 5.52611 6.47583 5.5381C6.44604 5.55086 6.4137 5.55763 6.38062 5.55763H6.03064C6.08716 6.11131 6.33289 6.62862 6.72644 7.02217C7.12 7.41573 7.63733 7.66148 8.19104 7.71794V7.36797C8.19104 7.30394 8.21643 7.24254 8.26172 7.19728C8.30701 7.15202 8.36841 7.12657 8.43237 7.12657C8.49634 7.12657 8.55774 7.15202 8.60303 7.19728C8.64832 7.24254 8.67371 7.30394 8.67371 7.36797V7.71794C9.22742 7.66148 9.74475 7.41573 10.1383 7.02217C10.5319 6.62862 10.7776 6.11131 10.8341 5.55763ZM9.43591 5.98674C9.56848 5.78828 9.63928 5.55495 9.63928 5.31624C9.63892 4.99626 9.5116 4.6895 9.2854 4.46324C9.05908 4.23698 8.75232 4.1097 8.43237 4.10933C8.19373 4.10933 7.96033 4.18013 7.76184 4.31273C7.56335 4.44536 7.40869 4.63383 7.31738 4.85439C7.22595 5.07491 7.20215 5.31758 7.24866 5.55168C7.29529 5.78581 7.41016 6.00087 7.57898 6.16963C7.7478 6.33842 7.96277 6.45338 8.1969 6.49995C8.43103 6.54652 8.67371 6.5226 8.89429 6.43126C9.11475 6.33992 9.30322 6.18523 9.43591 5.98674Z" fill="white" fill-opacity="0.75"/>
<path fill-rule="evenodd" clip-rule="evenodd" d="M8.45361 0.0502472C13.2721 0.0502472 16.1633 3.12453 16.1633 6.88313H16.1648C16.1648 9.02937 15.819 9.79277 15.5223 10.4477C15.2994 10.9398 15.1042 11.3707 15.1042 12.2806C15.1042 12.6031 15.2308 12.7316 15.3813 12.8843C15.6021 13.1083 15.8743 13.3846 15.8743 14.4018C15.8743 15.6217 14.7682 15.9383 13.7809 16.2209C13.2472 16.3737 12.7482 16.5165 12.4774 16.7867C11.7059 17.5582 11.7786 18.9791 11.7786 18.9791L11.3695 19.3881L11.0063 19.5566L10.6213 19.6293L10.1172 19.7499C10.1172 19.7499 9.44165 19.8288 9.44165 19.8465C9.44165 19.8465 8.62292 19.9808 8.57422 19.9431L7.70752 19.8465C7.73663 19.871 7.03198 19.7499 7.03198 19.7499L6.52563 19.6293L6.14062 19.5566C6.11719 19.5566 5.77893 19.3881 5.77893 19.3881C5.80373 19.4004 5.36841 18.9798 5.36841 18.9798C5.36841 18.9798 5.44104 17.5574 4.67102 16.786C4.40027 16.5157 3.90112 16.3729 3.36719 16.2201C2.37976 15.9376 1.27344 15.6211 1.27344 14.4018C1.27344 13.3841 1.54626 13.1079 1.76733 12.884C1.91809 12.7314 2.04492 12.603 2.04492 12.2806C2.04492 11.3707 1.84973 10.9398 1.62683 10.4478C1.3302 9.79277 0.984375 9.02937 0.984375 6.88313C0.984375 3.12453 3.63513 0.0502472 8.45361 0.0502472ZM2.79761 12.9562C2.93921 13.8838 3.52551 14.2471 4.82068 14.04C6.02588 13.8475 7.20703 13.4858 7.20703 11.6065C7.20703 10.9069 6.29175 10.3446 5.76147 10.2807C4.65356 10.1478 2.42859 10.5386 2.79761 12.9562ZM8.62292 16.2804C8.64758 16.8586 9.03259 17.171 9.27234 17.171L9.27307 17.1717C9.51501 17.1717 9.87524 16.9313 9.90002 16.353C9.92468 15.7748 9.1532 13.4378 8.59961 13.4378C8.04468 13.4378 7.27393 15.7748 7.29785 16.353C7.32251 16.932 7.68359 17.1717 7.92554 17.1717C8.16528 17.1717 8.59888 16.8586 8.62292 16.2804ZM12.2609 14.04C13.5562 14.2471 14.1438 13.8838 14.2848 12.9562C14.6553 10.5386 12.4294 10.1478 11.3217 10.2807C10.7913 10.3446 9.87598 10.9069 9.87598 11.6065C9.87598 13.4858 11.0565 13.8468 12.2609 14.04ZM11.3188 5.07484H11.691C11.755 5.07484 11.8164 5.1003 11.8617 5.14555C11.907 5.19081 11.9324 5.25221 11.9324 5.31624C11.9324 5.38026 11.907 5.44167 11.8617 5.48692C11.8164 5.53218 11.755 5.55763 11.691 5.55763H11.3188C11.2609 6.2397 10.9635 6.87929 10.4795 7.36333C9.99548 7.84737 9.35583 8.14467 8.67371 8.20265V8.57484C8.67371 8.6198 8.66125 8.66344 8.63806 8.70113C8.6283 8.71712 8.61658 8.73204 8.60303 8.74553C8.58313 8.76543 8.56006 8.78148 8.53516 8.79323C8.5033 8.80824 8.46826 8.81624 8.43237 8.81624C8.36841 8.81624 8.30701 8.79082 8.26172 8.74553C8.23035 8.71419 8.2085 8.67513 8.19812 8.6328C8.19348 8.614 8.19104 8.59456 8.19104 8.57484V8.20265C7.50891 8.14467 6.86926 7.84737 6.38525 7.36333C5.90125 6.87929 5.60388 6.2397 5.5459 5.55763H5.17371C5.14124 5.55763 5.1095 5.55107 5.08008 5.53868C5.05164 5.52669 5.02539 5.5092 5.00305 5.48692C4.95776 5.44167 4.93237 5.38026 4.93237 5.31624C4.93237 5.25221 4.95776 5.19081 5.00305 5.14555C5.04834 5.1003 5.10974 5.07484 5.17371 5.07484H5.5459C5.60388 4.39278 5.90125 3.75319 6.38525 3.26915C6.86926 2.78511 7.50891 2.48781 8.19104 2.42982V2.05763C8.19104 1.99361 8.21643 1.93221 8.26172 1.88695C8.30701 1.84166 8.36841 1.81624 8.43237 1.81624C8.49634 1.81624 8.55774 1.84166 8.60303 1.88695C8.64832 1.93221 8.67371 1.99361 8.67371 2.05763V2.42982C9.35583 2.48781 9.99548 2.78511 10.4795 3.26915C10.9635 3.75319 11.2609 4.39278 11.3188 5.07484Z" fill="white" fill-opacity="0.75"/>
</g>
<defs>
<filter id="filter0_i_134_71" x="0.984375" y="0.0502472" width="15.1797" height="19.8995" filterUnits="userSpaceOnUse" color-interpolation-filters="sRGB">
<feFlood flood-opacity="0" result="BackgroundImageFix"/>
<feBlend mode="normal" in="SourceGraphic" in2="BackgroundImageFix" result="shape"/>
<feColorMatrix in="SourceAlpha" type="matrix" values="0 0 0 0 0 0 0 0 0 0 0 0 0 0 0 0 0 0 127 0" result="hardAlpha"/>
<feOffset/>
<feGaussianBlur stdDeviation="0.9"/>
<feComposite in2="hardAlpha" operator="arithmetic" k2="-1" k3="1"/>
<feColorMatrix type="matrix" values="0 0 0 0 0 0 0 0 0 0 0 0 0 0 0 0 0 0 0.25 0"/>
<feBlend mode="normal" in2="shape" result="effect1_innerShadow_134_71"/>
</filter>
</defs>
</svg>
